<?xml version="1.0" standalone="no"?>
<!DOCTYPE svg PUBLIC "-//W3C//DTD SVG 20010904//EN"
 "http://www.w3.org/TR/2001/REC-SVG-20010904/DTD/svg10.dtd">
<svg version="1.0" xmlns="http://www.w3.org/2000/svg"
 width="397.000000pt" height="397.000000pt" viewBox="0 0 397.000000 397.000000"
 preserveAspectRatio="xMidYMid meet">
<metadata>
Created by potrace 1.14, written by Peter Selinger 2001-2017
</metadata>
<g transform="translate(0.000000,397.000000) scale(0.100000,-0.100000)"
fill="#000000" stroke="none">
<path d="M271 3433 c-5 -10 -9 -21 -9 -26 0 -4 -3 -24 -6 -45 -3 -20 -8 -71
-11 -112 -10 -138 -15 -193 -22 -203 -3 -5 -7 -21 -8 -36 -2 -25 -12 -116 -20
-191 -2 -19 -6 -46 -9 -60 -6 -25 -9 -51 -21 -170 -4 -36 -8 -76 -10 -90 -2
-14 -11 -83 -20 -155 -15 -119 -20 -178 -28 -292 l-3 -41 40 -4 c23 -1 97 -1
166 2 l125 5 1 30 c1 17 5 84 9 150 4 66 7 159 8 207 0 56 4 86 11 85 12 -2
48 -52 46 -63 -1 -4 2 -10 7 -13 4 -3 16 -22 27 -41 48 -91 102 -191 136 -250
68 -120 55 -111 142 -109 67 1 79 4 97 25 12 13 21 27 21 30 0 9 141 246 158
267 8 9 11 17 6 17 -5 0 -4 4 1 8 19 13 64 80 59 85 -3 3 3 12 15 19 12 7 21
18 21 24 0 6 6 11 13 11 9 0 12 -55 12 -239 0 -204 2 -238 15 -239 88 -5 345
3 350 11 3 5 1 52 -6 103 -6 50 -17 144 -24 207 -7 63 -14 124 -16 135 -2 11
-6 40 -9 65 -3 25 -8 59 -11 75 -12 61 -24 188 -19 196 3 4 2 10 -3 13 -5 3
-9 27 -11 53 -3 57 -6 97 -20 222 -5 52 -10 97 -9 100 0 3 0 8 -1 11 -4 10
-10 76 -13 138 -1 34 -6 62 -11 62 -4 0 -5 6 -1 13 4 6 -5 1 -20 -13 -15 -14
-35 -38 -43 -55 -9 -16 -19 -32 -22 -35 -4 -3 -16 -23 -28 -45 -11 -22 -42
-73 -69 -114 -56 -84 -59 -88 -99 -156 -16 -27 -37 -61 -47 -74 -10 -13 -15
-27 -12 -32 3 -5 1 -9 -5 -9 -5 0 -13 -9 -16 -20 -4 -11 -11 -18 -16 -15 -5 4
-9 -1 -9 -9 0 -16 -66 -133 -87 -154 -7 -7 -13 -18 -13 -24 0 -6 -12 -27 -27
-47 -15 -20 -26 -37 -25 -39 2 -2 -7 -12 -19 -23 -12 -10 -19 -19 -15 -19 4 0
1 -7 -6 -15 -7 -8 -19 -22 -27 -30 -7 -9 -14 -15 -15 -13 -2 2 -21 37 -43 78
-22 41 -52 96 -67 123 -15 26 -24 47 -20 47 4 0 0 8 -8 18 -8 9 -32 51 -53 92
-21 41 -41 77 -45 80 -5 3 -10 14 -12 25 -1 11 -9 25 -17 31 -8 6 -15 17 -16
25 -2 8 -16 37 -31 64 -16 28 -38 68 -49 90 -11 22 -23 42 -26 45 -3 3 -14 21
-24 40 -9 19 -24 49 -33 65 -8 17 -20 33 -25 36 -5 3 -7 8 -6 10 3 5 -51 99
-57 99 -2 0 -8 -8 -13 -17z"/>
<path d="M3398 3429 c-8 -5 -9 -50 -4 -156 14 -257 15 -363 7 -363 -4 0 -21
12 -37 26 -35 31 -128 79 -169 88 -68 14 -227 5 -251 -15 -8 -6 -14 -9 -14 -5
0 14 -118 -59 -153 -95 -21 -22 -42 -39 -45 -39 -4 0 -18 -17 -32 -38 -14 -20
-27 -39 -30 -42 -3 -3 -19 -32 -34 -65 -49 -105 -53 -277 -9 -385 4 -8 7 -17
7 -20 5 -27 76 -127 123 -173 77 -76 143 -113 234 -133 35 -7 138 -7 179 1 44
8 146 53 161 71 17 21 29 7 22 -26 -5 -26 -3 -30 18 -31 30 -1 177 0 204 0 20
1 20 7 18 553 -1 551 -7 811 -19 843 -6 13 -20 16 -86 13 -43 -1 -84 -5 -90
-9z m-149 -669 c28 -13 48 -26 46 -30 -2 -4 6 -13 19 -20 56 -29 88 -164 63
-267 -12 -46 -78 -139 -91 -126 -3 4 -6 1 -6 -4 0 -24 -88 -55 -147 -52 -83 3
-203 60 -203 96 0 7 -4 13 -10 13 -19 0 -47 86 -49 152 -2 82 19 136 74 190
76 75 201 94 304 48z"/>
<path d="M3708 3407 c-16 -6 -28 -14 -28 -17 0 -4 -9 -17 -20 -30 -19 -22 -24
-48 -20 -100 8 -99 144 -157 219 -94 30 25 31 29 31 105 0 60 -4 84 -17 100
-39 46 -104 60 -165 36z"/>
<path d="M2001 3028 c-22 -4 -49 -11 -59 -17 -11 -6 -22 -7 -26 -4 -3 3 -6 1
-6 -5 0 -7 -3 -11 -7 -10 -9 2 -61 -22 -81 -37 -70 -52 -180 -175 -175 -195 1
-3 -5 -16 -13 -30 -43 -77 -59 -265 -29 -337 8 -19 13 -34 13 -36 -1 -1 11
-29 26 -62 30 -64 171 -215 201 -215 8 0 15 -4 15 -8 0 -8 74 -38 76 -31 0 2
7 -1 15 -8 33 -27 223 -32 308 -7 73 21 160 66 199 102 18 17 32 29 32 27 0
-11 85 83 86 95 1 16 -20 34 -76 64 -19 10 -54 29 -78 42 -23 13 -47 24 -52
24 -5 0 -32 -23 -60 -50 -28 -28 -56 -48 -61 -45 -5 4 -9 2 -9 -3 0 -26 -135
-35 -212 -14 -63 17 -128 82 -142 145 l-6 27 212 1 c423 2 452 3 459 19 3 8 4
58 2 110 -4 103 -25 173 -74 245 -29 43 -117 133 -146 149 -10 5 -20 12 -23
16 -8 9 -90 38 -132 45 -53 10 -131 11 -177 3z m166 -254 c39 -16 103 -85 103
-110 0 -16 2 -16 -223 -16 -87 0 -161 2 -164 5 -8 9 98 108 132 123 41 18 107
17 152 -2z"/>
<path d="M3614 2531 l-1 -506 129 -1 c70 -1 128 2 129 5 1 9 1 985 0 998 -1 8
-38 11 -128 10 l-128 0 -1 -506z"/>
<path d="M3046 1921 c2 -2 -1 -10 -7 -17 -6 -7 -7 -19 -3 -26 12 -18 11 -58
-1 -58 -7 0 -7 -3 0 -8 12 -8 14 -500 3 -518 -4 -6 -4 -14 -1 -18 11 -11 10
-46 -1 -46 -7 0 -8 -3 -1 -8 6 -4 11 -20 11 -37 0 -16 -5 -33 -11 -37 -7 -5
-7 -8 0 -8 14 0 14 -100 0 -100 -7 0 -7 -3 0 -8 6 -4 11 -20 11 -37 0 -16 -5
-33 -11 -37 -6 -5 -5 -8 4 -8 11 0 11 -3 1 -15 -7 -8 -8 -15 -3 -15 11 0 11
-39 1 -55 -4 -6 -3 -17 2 -25 5 -9 5 -19 -1 -26 -7 -8 -6 -14 1 -19 7 -4 7
-12 0 -24 -5 -10 -7 -21 -4 -24 10 -10 11 -67 1 -67 -5 0 -5 -6 2 -13 8 -10 7
-17 -1 -25 -9 -9 -9 -12 0 -12 9 0 10 -5 2 -19 -6 -13 -6 -22 0 -26 12 -7 217
-8 229 -1 12 8 19 76 9 76 -5 0 -4 8 1 19 6 10 8 21 5 24 -8 8 -10 127 -2 127
4 0 4 10 0 23 -4 12 -7 42 -5 67 4 65 5 143 3 155 -1 6 -1 12 0 15 1 3 3 21 5
40 4 45 15 80 25 80 5 0 11 8 14 18 3 9 21 26 40 36 76 41 169 17 201 -50 15
-32 18 -74 19 -330 1 -162 5 -296 8 -299 6 -7 248 -8 255 -1 7 7 6 578 -1 615
-4 19 -11 42 -16 51 -5 10 -6 20 -3 24 3 3 2 6 -4 6 -5 0 -10 6 -10 13 0 18
-54 95 -94 136 -38 36 -107 80 -137 86 -11 2 -35 7 -53 12 -19 5 -43 8 -54 6
-77 -9 -106 -17 -152 -43 -29 -16 -54 -26 -56 -22 -2 4 -5 69 -5 145 -1 76 -4
142 -7 147 -3 5 -1 11 4 15 6 3 7 15 2 28 -4 12 -7 38 -5 57 6 66 5 67 -110
66 -58 0 -103 -3 -100 -5z"/>
<path d="M635 1888 c-14 -3 -25 -4 -25 -1 0 3 -7 0 -15 -7 -8 -7 -15 -10 -15
-6 0 4 -15 -1 -32 -11 -18 -9 -37 -16 -41 -15 -4 1 -15 -5 -23 -13 -9 -8 -19
-13 -24 -10 -4 3 -11 -2 -14 -11 -3 -8 -10 -12 -16 -9 -5 3 -10 2 -10 -4 0 -5
-8 -12 -19 -16 -25 -8 -144 -126 -179 -178 -30 -45 -61 -109 -92 -188 -17 -42
-19 -69 -16 -201 3 -154 5 -173 19 -195 5 -7 6 -17 3 -22 -4 -5 -3 -11 1 -13
9 -4 54 -96 50 -103 -1 -2 7 -11 18 -19 11 -9 17 -16 12 -16 -12 0 58 -76 140
-151 33 -31 95 -71 113 -74 3 -1 23 -10 46 -22 22 -12 56 -24 75 -26 19 -3 34
-6 34 -7 0 -10 228 -15 270 -5 47 10 123 34 157 49 21 9 40 16 43 16 3 0 11 4
18 10 6 5 44 33 84 62 39 29 69 56 67 60 -3 5 0 8 6 8 17 0 -19 61 -66 110
-86 90 -102 109 -96 114 3 3 2 6 -1 6 -4 0 -28 -20 -54 -45 -26 -25 -60 -51
-75 -57 -16 -7 -28 -17 -28 -21 0 -5 -4 -6 -9 -2 -5 3 -12 1 -15 -4 -19 -30
-201 -35 -271 -7 -79 31 -165 102 -181 149 -3 9 -10 17 -15 17 -5 0 -9 9 -9
19 0 11 -5 23 -10 26 -6 4 -8 11 -5 16 4 5 1 9 -4 9 -6 0 -10 3 -9 8 1 4 -2
30 -6 57 -4 28 -9 60 -11 72 -2 12 2 24 8 27 8 3 8 5 -1 5 -8 1 -10 6 -5 14 4
6 8 21 9 32 2 40 47 119 92 164 44 43 118 88 159 96 10 2 18 4 18 6 0 7 121
12 145 6 8 -3 30 -8 48 -12 17 -4 32 -12 32 -17 0 -5 4 -6 10 -3 9 6 18 0 55
-32 7 -7 16 -13 20 -13 8 0 27 -19 46 -48 l16 -22 53 54 c29 29 52 55 50 57
-1 2 23 29 53 60 58 61 60 73 13 111 -12 10 -30 26 -41 36 -26 24 -125 84
-125 75 0 -3 -8 0 -17 8 -17 14 -68 34 -115 45 -35 9 -264 10 -293 2z"/>
<path d="M1646 1533 c-1 -2 -21 -5 -43 -8 -177 -22 -339 -179 -376 -364 -19
-91 -13 -203 12 -251 5 -9 12 -30 16 -48 3 -18 10 -32 14 -32 5 0 16 -19 25
-43 14 -36 116 -158 116 -139 0 4 4 2 8 -4 9 -14 74 -47 127 -64 56 -19 215
-20 267 -2 23 8 59 25 80 38 25 16 38 20 39 12 1 -7 2 -17 4 -23 1 -5 3 -15 3
-22 1 -6 10 -10 20 -8 9 1 23 -3 31 -9 11 -8 13 -8 7 2 -4 6 -2 12 3 12 6 0
11 -5 11 -11 0 -8 4 -8 13 -1 12 10 89 8 106 -3 5 -3 12 -1 16 5 3 5 19 10 34
10 l27 0 -2 468 c-1 257 -2 469 -3 472 -1 4 -218 5 -255 1 -4 -1 -6 -12 -4
-26 3 -14 2 -28 -2 -30 -5 -3 -6 -14 -3 -25 4 -16 2 -19 -11 -14 -9 3 -16 10
-16 15 0 9 -76 60 -94 63 -6 1 -16 5 -23 9 -16 10 -140 27 -147 20z m134 -249
c14 -4 27 -10 30 -13 3 -3 22 -19 42 -34 110 -81 133 -253 49 -354 -10 -12
-40 -35 -67 -50 -39 -22 -60 -28 -104 -27 -88 3 -114 13 -178 69 -52 45 -79
111 -77 181 6 173 146 278 305 228z"/>
<path d="M2595 1530 c-11 -4 -23 -6 -28 -3 -15 9 -121 -29 -163 -58 -23 -15
-54 -43 -69 -61 -32 -37 -66 -108 -59 -120 3 -4 1 -8 -3 -8 -9 0 -9 -78 -2
-110 11 -42 52 -99 95 -132 26 -20 50 -35 53 -33 2 3 14 -1 25 -8 17 -11 49
-23 86 -32 3 0 14 -6 25 -12 11 -6 23 -11 28 -12 20 -2 66 -33 79 -53 12 -19
13 -28 2 -53 -7 -16 -13 -25 -14 -20 0 6 -4 4 -9 -4 -12 -18 -97 -18 -132 1
-37 20 -129 91 -129 100 0 21 -22 2 -72 -61 -31 -39 -59 -67 -62 -64 -3 4 -6
-1 -6 -9 0 -9 -5 -18 -11 -20 -23 -8 3 -44 64 -89 112 -84 184 -109 294 -104
78 5 96 8 138 24 126 49 196 150 200 288 1 40 -1 73 -4 73 -4 0 -8 10 -8 22
-1 13 -7 24 -13 26 -5 2 -10 9 -10 15 0 20 -62 85 -110 115 -50 31 -92 46
-164 57 -100 15 -122 74 -39 106 32 12 83 12 83 -1 0 -5 7 -10 15 -10 8 0 15
-4 15 -10 0 -14 37 -12 44 3 5 10 7 10 12 0 3 -7 13 -13 23 -13 9 0 22 -5 29
-12 9 -9 12 -8 12 5 0 10 7 20 15 23 8 4 15 14 15 24 0 10 7 21 16 24 9 4 14
9 11 12 -3 3 5 16 19 29 l25 23 -43 42 c-24 24 -63 52 -88 63 -50 23 -49 23
-105 32 -22 3 -44 7 -50 9 -5 2 -19 0 -30 -4z"/>
</g>
</svg>
